<svg width="44" height="29" viewBox="0 0 44 29" fill="none" xmlns="http://www.w3.org/2000/svg">
<path d="M20.284 26.9C18.94 27.644 16.84 28.016 13.984 28.016C9.88 28.016 6.604 26.768 4.156 24.272C1.732 21.728 0.52 18.38 0.52 14.228C0.52 10.124 1.756 6.8 4.228 4.256C6.7 1.712 9.952 0.439999 13.984 0.439999C16.912 0.439999 19.012 0.763999 20.284 1.412L19.996 5.084C18.364 4.436 16.36 4.112 13.984 4.112C11.08 4.112 8.764 5.048 7.036 6.92C5.308 8.792 4.444 11.228 4.444 14.228C4.444 17.348 5.284 19.796 6.964 21.572C8.668 23.42 11.008 24.344 13.984 24.344C16.504 24.344 18.508 23.948 19.996 23.156L20.284 26.9ZM43.4163 4.472H36.1083V27.548H32.1843V4.472H24.9123V0.907999H43.4163V4.472Z" fill="white"/>
<path d="M20.284 26.9L20.7683 27.7749L21.3303 27.4638L21.2811 26.8233L20.284 26.9ZM4.156 24.272L3.43202 24.9618L3.43701 24.9671L3.44206 24.9722L4.156 24.272ZM4.228 4.256L3.51082 3.55911L3.51082 3.55911L4.228 4.256ZM20.284 1.412L21.2809 1.49019L21.3332 0.824199L20.7379 0.52096L20.284 1.412ZM19.996 5.084L19.627 6.01342L20.8869 6.5137L20.9929 5.16219L19.996 5.084ZM7.036 6.92L7.7708 7.59828L7.7708 7.59828L7.036 6.92ZM6.964 21.572L7.69923 20.8941L7.69047 20.8848L6.964 21.572ZM19.996 23.156L20.9931 23.0793L20.8758 21.5549L19.5262 22.2733L19.996 23.156ZM19.7997 26.0251C18.6832 26.6432 16.7931 27.016 13.984 27.016V29.016C16.8869 29.016 19.1968 28.6448 20.7683 27.7749L19.7997 26.0251ZM13.984 27.016C10.0981 27.016 7.09724 25.8428 4.86994 23.5718L3.44206 24.9722C6.11076 27.6932 9.6619 29.016 13.984 29.016V27.016ZM4.87998 23.5822C2.66477 21.2573 1.52 18.1729 1.52 14.228H-0.48C-0.48 18.5871 0.799233 22.1987 3.43202 24.9618L4.87998 23.5822ZM1.52 14.228C1.52 10.3402 2.68307 7.28088 4.94518 4.95288L3.51082 3.55911C0.82893 6.31911 -0.48 9.90778 -0.48 14.228H1.52ZM4.94518 4.95288C7.2025 2.62982 10.1818 1.44 13.984 1.44V-0.560001C9.72218 -0.560001 6.1975 0.794178 3.51082 3.55911L4.94518 4.95288ZM13.984 1.44C16.8866 1.44 18.782 1.76914 19.8301 2.30304L20.7379 0.52096C19.242 -0.241138 16.9374 -0.560001 13.984 -0.560001V1.44ZM19.2871 1.33381L18.9991 5.00581L20.9929 5.16219L21.2809 1.49019L19.2871 1.33381ZM20.365 4.15458C18.5821 3.44665 16.4445 3.112 13.984 3.112V5.112C16.2755 5.112 18.1459 5.42534 19.627 6.01342L20.365 4.15458ZM13.984 3.112C10.8439 3.112 8.24583 4.13504 6.3012 6.24172L7.7708 7.59828C9.28218 5.96096 11.3161 5.112 13.984 5.112V3.112ZM6.3012 6.24172C4.373 8.3306 3.444 11.0241 3.444 14.228H5.444C5.444 11.4319 6.243 9.2534 7.7708 7.59828L6.3012 6.24172ZM3.444 14.228C3.444 17.5302 4.33718 20.2503 6.23753 22.2592L7.69047 20.8848C6.23082 19.3417 5.444 17.1658 5.444 14.228H3.444ZM6.22883 22.2499C8.15701 24.341 10.7846 25.344 13.984 25.344V23.344C11.2314 23.344 9.17899 22.499 7.69917 20.8941L6.22883 22.2499ZM13.984 25.344C16.5932 25.344 18.7792 24.9365 20.4658 24.0387L19.5262 22.2733C18.2368 22.9595 16.4148 23.344 13.984 23.344V25.344ZM18.9989 23.2327L19.2869 26.9767L21.2811 26.8233L20.9931 23.0793L18.9989 23.2327ZM43.4163 4.472V5.472H44.4163V4.472H43.4163ZM36.1083 4.472V3.472H35.1083V4.472H36.1083ZM36.1083 27.548V28.548H37.1083V27.548H36.1083ZM32.1843 27.548H31.1843V28.548H32.1843V27.548ZM32.1843 4.472H33.1843V3.472H32.1843V4.472ZM24.9123 4.472H23.9123V5.472H24.9123V4.472ZM24.9123 0.907999V-0.092001H23.9123V0.907999H24.9123ZM43.4163 0.907999H44.4163V-0.092001H43.4163V0.907999ZM43.4163 3.472H36.1083V5.472H43.4163V3.472ZM35.1083 4.472V27.548H37.1083V4.472H35.1083ZM36.1083 26.548H32.1843V28.548H36.1083V26.548ZM33.1843 27.548V4.472H31.1843V27.548H33.1843ZM32.1843 3.472H24.9123V5.472H32.1843V3.472ZM25.9123 4.472V0.907999H23.9123V4.472H25.9123ZM24.9123 1.908H43.4163V-0.092001H24.9123V1.908ZM42.4163 0.907999V4.472H44.4163V0.907999H42.4163Z" fill="white"/>
</svg>
